<svg xmlns="http://www.w3.org/2000/svg" width="93.24" height="93.24" viewBox="0 0 93.24 93.24">
  <g id="Group_348" data-name="Group 348" transform="translate(-146.145 -274.713)">
    <g id="Group_324" data-name="Group 324">
      <path id="Path_218" data-name="Path 218" d="M239.385,321.333a46.506,46.506,0,0,1-15.66,34.84c-.44.4-.9.79-1.36,1.17-.75.63-1.52,1.23-2.32,1.79-.98.72-1.99,1.39-3.03,2.02-.82.5-1.65.98-2.5,1.43-.24.13-.48.25-.73.37-.37.18-.73.37-1.1.54a46.7,46.7,0,0,1-27.5,3.84,44.977,44.977,0,0,1-5.2-1.15,46.306,46.306,0,0,1-14.86-7.3c-.17-.12-.34-.24-.5-.37-1.09-.83-2.14-1.71-3.16-2.63a46,46,0,0,1-4.77-5c-.21-.26-.42-.52-.63-.79-.28-.36-.56-.72-.82-1.09a46.62,46.62,0,1,1,84.14-27.67Z" fill="#e8e1ef"/>
    </g>
    <g id="Group_325" data-name="Group 325">
      <path id="Path_219" data-name="Path 219" d="M221.005,358.363c-.32.26-.64.52-.96.77-.98.72-1.99,1.39-3.03,2.02-.82.5-1.65.98-2.5,1.43-.24.13-.48.25-.73.37-.37.18-.73.37-1.1.54a46.7,46.7,0,0,1-27.5,3.84,44.977,44.977,0,0,1-5.2-1.15,46.306,46.306,0,0,1-14.86-7.3c-.17-.12-.34-.24-.5-.37-1.09-.83-2.14-1.71-3.16-2.63a46,46,0,0,1-4.77-5c-.21-.26-.42-.52-.63-.79,3.02-4.58,8.05-10.33,15.53-13.34a28.428,28.428,0,0,1,6.82-1.77c.15-.02.28-.04.43-.05.22-.03.44-.05.66-.07a.09.09,0,0,1,.05-.01l.56-.03c.29-.02.57-.04.82-.05.61-.05,1.23-.1,1.82-.12,16.83-.65,25.79,6.03,26.31,6.43a.384.384,0,0,1,.11.11c.17.18.57.62,1.16,1.3A80.787,80.787,0,0,1,221.005,358.363Z" fill="#5375e2"/>
    </g>
    <g id="Group_326" data-name="Group 326">
      <path id="Path_220" data-name="Path 220" d="M185.864,311.9s3.812-.942,5.6-3.136,2.081-7.621,2.081-7.621,6.9,3.591,8.718,3.192,5.37-8.527,2.975-12.038-7.243.836-7.243.836a4.983,4.983,0,0,0-6.294-3.845c-6.22,1.373-7.83,7.69-7.83,7.69s-.418-6.854-4.746-3.845S176.355,304,176.355,304s-3.463,1.5-2.77,4.764,5.366,6.4,5.366,6.4Z"/>
    </g>
    <g id="Group_328" data-name="Group 328">
      <g id="Group_327" data-name="Group 327">
        <path id="Path_221" data-name="Path 221" d="M185.247,321.736l-.907,10.336s1.669,3.129,7.887,4.133c4.632.748,6.36-.136,6.36-.136l-.191-5.288-.193-5.157-11.1-3.327Z" fill="#f48462"/>
      </g>
    </g>
    <g id="Group_330" data-name="Group 330">
      <g id="Group_329" data-name="Group 329">
        <path id="Path_222" data-name="Path 222" d="M187.108,322.3a3.305,3.305,0,0,0,.223,1.022c1.942,5.36,8.392,7.009,11.065,7.462l-.193-5.157Z"/>
      </g>
    </g>
    <g id="Group_332" data-name="Group 332">
      <g id="Group_331" data-name="Group 331">
        <path id="Path_223" data-name="Path 223" d="M202.657,302.26s4.479,13.418,1.633,20.437-9.541,5.222-13.472,3.431a13.424,13.424,0,0,1-5.573-4.39,5.873,5.873,0,0,1-6.129-2.788c-2.192-3.667-.215-7.442,2.053-8.131s4.695,1.077,4.695,1.077l-1.638-3.932S194.726,289.8,202.657,302.26Z" fill="#f48462"/>
      </g>
    </g>
    <g id="Group_333" data-name="Group 333">
      <path id="Path_224" data-name="Path 224" d="M185.015,317.532a.5.5,0,0,1-.318-.114l-4.528-3.743a.5.5,0,0,1,.637-.772l4.528,3.744a.5.5,0,0,1,.066.7A.5.5,0,0,1,185.015,317.532Z"/>
    </g>
    <g id="Group_334" data-name="Group 334">
      <path id="Path_225" data-name="Path 225" d="M193.33,307.952a.5.5,0,0,1-.363-.844,3.465,3.465,0,0,1,4.38-.722.5.5,0,0,1-.533.846,2.475,2.475,0,0,0-3.121.564A.5.5,0,0,1,193.33,307.952Z"/>
    </g>
    <g id="Group_335" data-name="Group 335">
      <path id="Path_226" data-name="Path 226" d="M203.673,307.43a.494.494,0,0,1-.343-.137,2.124,2.124,0,0,0-2.272-.41.5.5,0,0,1-.418-.908,3.124,3.124,0,0,1,3.377.591.5.5,0,0,1-.344.864Z"/>
    </g>
    <g id="Group_336" data-name="Group 336">
      <path id="Path_227" data-name="Path 227" d="M200.115,317.115a.5.5,0,0,1-.189-.037.5.5,0,0,1-.275-.651c1.4-3.448-.2-4.689-.266-4.739a.5.5,0,0,1,.581-.815c.1.068,2.33,1.705.612,5.931A.5.5,0,0,1,200.115,317.115Z"/>
    </g>
    <g id="Group_337" data-name="Group 337">
      <path id="Path_228" data-name="Path 228" d="M203.189,312.392a.5.5,0,0,1-.491-.407l-.462-2.425a.5.5,0,0,1,.983-.187l.462,2.425a.5.5,0,0,1-.492.594Z"/>
    </g>
    <g id="Group_338" data-name="Group 338">
      <path id="Path_229" data-name="Path 229" d="M195.435,312.392a.5.5,0,0,1-.491-.407l-.461-2.425a.5.5,0,0,1,.982-.187l.462,2.425a.5.5,0,0,1-.492.594Z"/>
    </g>
    <g id="Group_339" data-name="Group 339">
      <path id="Path_230" data-name="Path 230" d="M197.988,321.013a4.14,4.14,0,0,1-3.816-2.529.5.5,0,0,1,.934-.357,3.11,3.11,0,0,0,2.883,1.886.466.466,0,0,1,.505.494.5.5,0,0,1-.494.506Z"/>
    </g>
    <g id="Group_340" data-name="Group 340">
      <path id="Path_231" data-name="Path 231" d="M185.864,311.9s4.088-.711,5.6-4.054a14.445,14.445,0,0,0,1.289-6.354,6.95,6.95,0,0,0,5.644,1.884c3.58-.379,4.563-4.057,4.563-4.057l-3.281-3.845s-13.479,2.844-13.814,2.425-5.238,8.324-5.238,8.324Z"/>
    </g>
    <g id="Group_341" data-name="Group 341">
      <path id="Path_232" data-name="Path 232" d="M212.685,363.493a46.7,46.7,0,0,1-27.5,3.84,44.977,44.977,0,0,1-5.2-1.15,46.306,46.306,0,0,1-14.86-7.3c1.86-11.23,3.82-20.44,5.34-21.48a11.13,11.13,0,0,1,1.13-.65,21.965,21.965,0,0,1,6.82-1.77c.15-.02.28-.04.43-.05.22-.03.44-.05.66-.07.2-.01.41-.02.61-.04.29-.02.57-.04.82-.05,1.11-.06,1.81-.05,1.81-.05a.418.418,0,0,1,.01-.07c.05-.64.49-5.64,1.85-5.53,1.44.12,4.94,2.53,8.64,2.83a38.724,38.724,0,0,0,6.43-.03c.75,0,.9,3.96.9,3.96a25.1,25.1,0,0,1,8.49,5.2.384.384,0,0,1,.11.11c.17.18.57.62,1.16,1.3a11.1,11.1,0,0,1,1.17,1.8C212.525,346.283,212.785,354.133,212.685,363.493Z" fill="#5375e2"/>
    </g>
    <g id="Group_342" data-name="Group 342">
      <path id="Path_233" data-name="Path 233" d="M190.6,336.867a28.042,28.042,0,0,1-8.022-1.677.5.5,0,1,1,.345-.937c.06.021,6.033,2.205,9.189,1.465a.5.5,0,0,1,.227.974A7.753,7.753,0,0,1,190.6,336.867Z" fill="#fff"/>
    </g>
    <g id="Group_343" data-name="Group 343">
      <path id="Path_234" data-name="Path 234" d="M180.626,317.44a.5.5,0,0,1-.236-.941l2.6-1.389a.5.5,0,0,1,.471.883l-2.6,1.389A.5.5,0,0,1,180.626,317.44Z"/>
    </g>
    <g id="Group_344" data-name="Group 344">
      <path id="Path_235" data-name="Path 235" d="M196,315.21h-2.307a2.871,2.871,0,0,1-2.867-2.868v-2.393a1.377,1.377,0,0,1,1.375-1.375h5.291a1.377,1.377,0,0,1,1.375,1.375v2.393A2.871,2.871,0,0,1,196,315.21Zm-3.8-5.636a.375.375,0,0,0-.375.375v2.393a1.869,1.869,0,0,0,1.867,1.868H196a1.87,1.87,0,0,0,1.867-1.868v-2.393a.376.376,0,0,0-.375-.375Z" fill="#5375e2"/>
    </g>
    <g id="Group_345" data-name="Group 345">
      <path id="Path_236" data-name="Path 236" d="M204.948,315.329h-1.57a2.671,2.671,0,0,1-2.668-2.668v-2.666a1.3,1.3,0,0,1,1.3-1.3h4.3a1.3,1.3,0,0,1,1.3,1.3v2.666A2.671,2.671,0,0,1,204.948,315.329Zm-2.936-5.635a.3.3,0,0,0-.3.3v2.666a1.67,1.67,0,0,0,1.668,1.668h1.57a1.67,1.67,0,0,0,1.668-1.668v-2.666a.3.3,0,0,0-.3-.3Z" fill="#5375e2"/>
    </g>
    <g id="Group_346" data-name="Group 346" transform="translate(0.856)">
      <path id="Path_237" data-name="Path 237" d="M197.492,312.392a.408.408,0,0,1-.364-.275.559.559,0,0,1,.178-.671,3.585,3.585,0,0,1,3.294-.207.545.545,0,0,1,.224.652.385.385,0,0,1-.531.274,2.923,2.923,0,0,0-2.618.173A.352.352,0,0,1,197.492,312.392Z" transform="translate(0)" fill="#5375e2"/>
    </g>
    <g id="Group_347" data-name="Group 347">
      <path id="Path_238" data-name="Path 238" d="M181.914,311.179a.5.5,0,0,1-.186-.964,12.679,12.679,0,0,1,9.816.015.5.5,0,0,1-.443.9,11.906,11.906,0,0,0-9,.016A.508.508,0,0,1,181.914,311.179Z" fill="#5375e2"/>
    </g>
  </g>
</svg>
